{"title":"A.Warriors.Heart.2011.DVDRip.Xvid.AC3-GBR","uid":7112719,"size":991744082,"categoryP":"video","categoryS":"movies","magnet":"?xt=urn:btih:725e8595111d4df5ecbebb29040c21787474d355&amp;dn=A.Warriors.Heart.2011.DVDRip.Xvid.AC3-GBR&amp;tr=udp%3A%2F%2Ftracker.openbittorrent.com%3A80&amp;tr=udp%3A%2F%2Fopen.demonii.com%3A1337&amp;tr=udp%3A%2F%2Ftracker.coppersurfer.tk%3A6969&amp;tr=udp%3A%2F%2Fexodus.desync.com%3A6969","seeders":0,"leechers":1,"uploader":"TvTeam","files":4,"time":1332116433,"description":". \n &lt;a href=&quot;\nhttp://www.torrenting.com&quot; rel=&quot;nofollow&quot; target=&quot;_NEW&quot;&gt;\nhttp://www.torrenting.com&lt;/a&gt;          :     Once &amp; For all ;)\n\n\n               www . Torrenting . Com \n\n(((((((((((((= Enjoy No RAR releases =))))))))))))))))))))\n\n\n...................................NFO:....................................\n\n.[IMG]http://i.imgur.com/156dj.jpg[/IMG]\n &lt;a href=&quot;\nhttp://www.imdb.com/title/tt1341340/&quot; rel=&quot;nofollow&quot; target=&quot;_NEW&quot;&gt;\nhttp://www.imdb.com/title/tt1341340/&lt;/a&gt;\n\nIn shock and denial over his Marine father's death in battle, star Lacrosse player Conor Sullivan...\n\n\nGeneral\nComplete name                            : C:UsersrootDesktopA.Warriors.Heart.2011.DVDRip.Xvid.AC3-GBRA.Warriors.Heart.2011.DVDRip.Xvid.AC3-GBR.avi\nFormat                                   : AVI\nFormat/Info                              : Audio Video Interleave\nFile size                                : 946 MiB\nDuration                                 : 1h 34mn\nOverall bit rate                         : 1 392 Kbps\nWriting application                      : VirtualDubMod 1.5.10.2 (build 2540/release)\nWriting library                          : VirtualDubMod build 2540/release\n\nVideo\nID                                       : 0\nFormat                                   : MPEG-4 Visual\nFormat profile                           : Advanced Simple@L5\nFormat settings, BVOP                    : 1\nFormat settings, QPel                    : No\nFormat settings, GMC                     : No warppoints\nFormat settings, Matrix                  : Default (H.263)\nMuxing mode                              : Packed bitstream\nCodec ID                                 : XVID\nCodec ID/Hint                            : XviD\nDuration                                 : 1h 34mn\nBit rate                                 : 999 Kbps\nWidth                                    : 720 pixels\nHeight                                   : 384 pixels\nDisplay aspect ratio                     : 1.875\nFrame rate                               : 23.976 fps\nColor space                              : YUV\nChroma subsampling                       : 4:2:0\nBit depth                                : 8 bits\nScan type                                : Progressive\nCompression mode                         : Lossy\nBits/(Pixel*Frame)                       : 0.151\nStream size                              : 679 MiB (72%)\nWriting library                          : XviD 1.2.1 (UTC 2008-12-04)\n\nAudio\nID                                       : 1\nFormat                                   : AC-3\nFormat/Info                              : Audio Coding 3\nMode extension                           : CM (complete main)\nCodec ID                                 : 2000\nDuration                                 : 1h 34mn\nBit rate mode                            : Constant\nBit rate                                 : 384 Kbps\nChannel(s)                               : 6 channels\nChannel positions                        : Front: L C R, Side: L R, LFE\nSampling rate                            : 48.0 KHz\nBit depth                                : 16 bits\nCompression mode                         : Lossy\nStream size                              : 261 MiB (28%)\nAlignment                                : Split accross interleaves\nInterleave, duration                     : 42 ms (1.00 video frame)\nInterleave, preload duration             : 500 ms\n\nSource A Warriors Heart 2011 DVDR-iGNiTiON-thanks\n\n[IMG]http://i.imgur.com/A9slI.png[/IMG]\n[IMG]http://i.imgur.com/hO1Uc.png[/IMG]\n[IMG]http://i.imgur.com/FyIWW.png[/IMG]","torrent":{"xt":"urn:btih:725e8595111d4df5ecbebb29040c21787474d355","amp;dn":"A.Warriors.Heart.2011.DVDRip.Xvid.AC3-GBR","amp;tr":["udp%3A%2F%2Ftracker.openbittorrent.com%3A80","udp%3A%2F%2Fopen.demonii.com%3A1337","udp%3A%2F%2Ftracker.coppersurfer.tk%3A6969","udp%3A%2F%2Fexodus.desync.com%3A6969"],"infoHash":"725e8595111d4df5ecbebb29040c21787474d355","infoHashBuffer":{"type":"Buffer","data":[114,94,133,149,17,29,77,245,236,190,187,41,4,12,33,120,116,116,211,85]},"announce":[],"urlList":[]}}